<?xml version="1.0" encoding="UTF-8" standalone="no"?> <!-- Created with Vectornator for iOS (http://vectornator.io/) --><!DOCTYPE svg PUBLIC "-//W3C//DTD SVG 1.1//EN" "http://www.w3.org/Graphics/SVG/1.1/DTD/svg11.dtd">
<svg height="100%" style="fill-rule:nonzero;clip-rule:evenodd;stroke-linecap:round;stroke-linejoin:round;" xmlns:xlink="http://www.w3.org/1999/xlink" xmlns="http://www.w3.org/2000/svg" xml:space="preserve" width="100%" xmlns:vectornator="http://vectornator.io" version="1.1" viewBox="0 0 351.54 170.1">
<metadata>
<vectornator:setting key="DimensionsVisible" value="1"/>
<vectornator:setting key="PencilOnly" value="1"/>
<vectornator:setting key="SnapToPoints" value="1"/>
<vectornator:setting key="OutlineMode" value="0"/>
<vectornator:setting key="CMYKEnabledKey" value="0"/>
<vectornator:setting key="RulersVisible" value="1"/>
<vectornator:setting key="SnapToEdges" value="1"/>
<vectornator:setting key="GuidesVisible" value="1"/>
<vectornator:setting key="DisplayWhiteBackground" value="0"/>
<vectornator:setting key="doHistoryDisabled" value="0"/>
<vectornator:setting key="SnapToGuides" value="1"/>
<vectornator:setting key="TimeLapseWatermarkDisabled" value="0"/>
<vectornator:setting key="Units" value="Millimeters"/>
<vectornator:setting key="DynamicGuides" value="0"/>
<vectornator:setting key="IsolateActiveLayer" value="0"/>
<vectornator:setting key="SnapToGrid" value="1"/>
</metadata>
<defs/>
<g id="Ebene 2" vectornator:layerName="Ebene 2">
<path d="M-29.0508-22.4088L197.452-22.4088L197.452+71.3428L-29.0508+71.3428L-29.0508-22.4088Z" opacity="1" fill="#ffffff"/>
<path d="M353.782+170.66L-9.72756+170.66L-9.72756-6.20558" opacity="1" fill="#ffffff"/>
<path d="M-9.72756-6.20558L353.782-6.20558L353.782+170.66" opacity="1" fill="#ffffff"/>
<path d="M256.771+82.7141L258.297+82.7141L258.297+84.8768L256.771+84.8768L256.771+82.7141Z" opacity="1" fill="#ffffff"/>
<path d="M255.027+86.2117L255.333+86.2117L255.333+86.6443L255.027+86.6443L255.027+86.2117Z" opacity="1" fill="#ffffff"/>
</g>
<g id="Ebene 1" vectornator:layerName="Ebene 1">
<g opacity="1">
<path d="M35.758+50.6837L32.2966+65.899L39.2444+65.899L35.758+50.6837ZM31.2756+43.96L40.2653+43.96L50.301+81.1392L42.9548+81.1392L40.6638+71.9503L30.8274+71.9503L28.5861+81.1392L21.24+81.1392L31.2756+43.96Z" opacity="1" fill="#c72d3b"/>
<path d="M79.7854+60.9434C78.9885+60.213+78.0547+59.6651+76.9839+59.2999C75.9131+58.9346+74.7385+58.752+73.4602+58.752C71.9162+58.752+70.5673+59.0218+69.4135+59.5614C68.2597+60.1009+67.3674+60.8853+66.7365+61.9146C66.3381+62.5455+66.06+63.3092+65.9023+64.2056C65.7446+65.1021+65.6657+66.4635+65.6657+68.2896L65.6657+81.1392L58.3694+81.1392L58.3694+53.2486L65.6657+53.2486L65.6657+57.5816C66.3796+55.9879+67.4753+54.7552+68.9528+53.8836C70.4304+53.012+72.1569+52.5762+74.1325+52.5762C75.1286+52.5762+76.104+52.6966+77.0586+52.9373C78.0131+53.1781+78.9221+53.5308+79.7854+53.9957L79.7854+60.9434Z" opacity="1" fill="#c72d3b"/>
<path d="M99.01+45.3297L99.01+53.2486L108.548+53.2486L108.548+58.8516L99.01+58.8516L99.01+72.0499C99.01+73.295+99.313+74.1873+99.9189+74.7269C100.525+75.2664+101.533+75.5362+102.945+75.5362L108.548+75.5362L108.548+81.1392L102.422+81.1392C98.238+81.1392+95.4074+80.471+93.9299+79.1346C92.4524+77.7982+91.7136+75.3204+91.7136+71.7012L91.7136+58.8516L84.5915+58.8516L84.5915+53.2486L91.7136+53.2486L91.7136+45.3297L99.01+45.3297Z" opacity="1" fill="#c72d3b"/>
<path d="M118.035+53.2486L132.479+53.2486L132.479+75.5362L141.543+75.5362L141.543+81.1392L116.093+81.1392L116.093+75.5362L125.182+75.5362L125.182+58.8516L118.035+58.8516L118.035+53.2486ZM125.182+39.6768L132.479+39.6768L132.479+48.1934L125.182+48.1934L125.182+39.6768Z" opacity="1" fill="#c72d3b"/>
<path d="M169.658+79.7198C168.429+80.4337+167.11+80.9691+165.698+81.326C164.287+81.6829+162.768+81.8614+161.141+81.8614C156.842+81.8614+153.48+80.5665+151.056+77.9766C148.632+75.3868+147.42+71.8009+147.42+67.2188C147.42+62.6202+148.64+59.0218+151.081+56.4237C153.521+53.8255+156.891+52.5264+161.191+52.5264C162.685+52.5264+164.125+52.7008+165.512+53.0494C166.898+53.398+168.28+53.9376+169.658+54.668L169.658+61.3419C168.595+60.4288+167.429+59.7274+166.159+59.2376C164.889+58.7479+163.573+58.503+162.212+58.503C159.838+58.503+158.012+59.2584+156.734+60.7691C155.455+62.2799+154.816+64.4298+154.816+67.2188C154.816+70.0079+155.455+72.1495+156.734+73.6436C158.012+75.1378+159.838+75.8848+162.212+75.8848C163.623+75.8848+164.943+75.6483+166.172+75.1751C167.4+74.702+168.562+73.984+169.658+73.0211L169.658+79.7198Z" opacity="1" fill="#c72d3b"/>
<path d="M183.578+69.5098L183.578+47.9942L176.182+47.9942L176.182+42.3912L190.875+42.3912L190.875+69.5098C190.875+71.7012+191.215+73.2535+191.896+74.1666C192.576+75.0797+193.73+75.5362+195.357+75.5362L201.184+75.5362L201.184+81.1392L193.315+81.1392C189.845+81.1392+187.355+80.2428+185.844+78.4498C184.334+76.6568+183.578+73.6768+183.578+69.5098Z" opacity="1" fill="#c72d3b"/>
<path d="M232.088+79.7696C230.395+80.4669+228.668+80.9898+226.908+81.3385C225.149+81.6871+223.289+81.8614+221.33+81.8614C216.665+81.8614+213.1+80.6121+210.635+78.1136C208.169+75.6151+206.937+72.0167+206.937+67.3184C206.937+62.7696+208.124+59.1754+210.498+56.5357C212.872+53.8961+216.109+52.5762+220.21+52.5762C224.343+52.5762+227.552+53.8006+229.834+56.2493C232.117+58.6981+233.259+62.147+233.259+66.5963L233.259+69.5596L214.358+69.5596C214.374+71.7511+215.022+73.3863+216.3+74.4654C217.578+75.5445+219.488+76.0841+222.028+76.0841C223.704+76.0841+225.356+75.8433+226.983+75.3619C228.61+74.8804+230.312+74.1168+232.088+73.0709L232.088+79.7696ZM225.912+64.0811C225.879+62.1553+225.385+60.6986+224.431+59.7108C223.476+58.723+222.069+58.2291+220.21+58.2291C218.533+58.2291+217.196+58.7396+216.2+59.7606C215.204+60.7816+214.615+62.2301+214.432+64.106L225.912+64.0811Z" opacity="1" fill="#c72d3b"/>
<path d="M260.029+54.1202L260.029+60.4952C258.684+59.6319+257.285+58.9803+255.832+58.5404C254.38+58.1004+252.923+57.8804+251.462+57.8804C249.835+57.8804+248.607+58.117+247.777+58.5902C246.946+59.0633+246.531+59.7647+246.531+60.6944C246.531+62.0225+248.308+63.1016+251.861+63.9317L252.134+64.0064L254.226+64.5045C256.883+65.1353+258.829+66.1522+260.066+67.555C261.303+68.9578+261.921+70.8546+261.921+73.2452C261.921+76.1173+260.979+78.2713+259.095+79.7074C257.21+81.1434+254.376+81.8614+250.591+81.8614C248.914+81.8614+247.196+81.7161+245.436+81.4256C243.676+81.1351+241.891+80.6993+240.082+80.1182L240.082+73.7432C241.692+74.6563+243.332+75.3536+245+75.835C246.668+76.3165+248.283+76.5572+249.843+76.5572C251.553+76.5572+252.848+76.3082+253.728+75.8101C254.608+75.3121+255.048+74.5899+255.048+73.6436C255.048+72.7139+254.737+72.0001+254.114+71.502C253.492+71.004+252.01+70.4727+249.669+69.9083L247.652+69.46C244.863+68.8292+242.829+67.8414+241.551+66.4967C240.273+65.1519+239.634+63.3507+239.634+61.0928C239.634+58.4034+240.605+56.3116+242.547+54.8175C244.489+53.3233+247.22+52.5762+250.74+52.5762C252.317+52.5762+253.89+52.7049+255.459+52.9622C257.028+53.2196+258.551+53.6055+260.029+54.1202Z" opacity="1" fill="#c72d3b"/>
<path d="M318.425+79.3463C317.179+80.1763+315.855+80.8031+314.453+81.2264C313.05+81.6497+311.626+81.8614+310.182+81.8614C306.463+81.8614+303.45+80.774+301.142+78.5992C298.835+76.4244+297.681+73.6021+297.681+70.1324C297.681+67.7252+298.266+65.5338+299.436+63.5582C300.607+61.5826+302.346+59.8643+304.654+58.4034C303.823+57.1085+303.209+55.909+302.811+54.805C302.412+53.701+302.213+52.651+302.213+51.6549C302.213+48.9654+303.118+46.8985+304.927+45.4542C306.737+44.0098+309.352+43.2877+312.772+43.2877C313.984+43.2877+315.171+43.379+316.333+43.5616C317.495+43.7442+318.64+44.0098+319.769+44.3585L319.769+50.7335C318.707+50.1358+317.632+49.6834+316.544+49.3763C315.457+49.0692+314.374+48.9156+313.295+48.9156C311.967+48.9156+310.962+49.148+310.281+49.6129C309.601+50.0777+309.26+50.7584+309.26+51.6549C309.26+52.2525+309.514+53.0743+310.02+54.1202C310.526+55.1661+311.344+56.5357+312.473+58.2291L320.267+70.1822C320.616+69.5513+320.882+68.8292+321.064+68.0157C321.247+67.2022+321.338+66.3223+321.338+65.3761C321.338+64.878+321.321+64.3924+321.288+63.9193C321.255+63.4461+321.205+63.002+321.139+62.587L326.991+62.587L326.991+63.857C326.991+66.2642+326.709+68.3685+326.144+70.1698C325.58+71.971+324.692+73.5855+323.48+75.0133L327.514+81.1392L319.62+81.1392L318.425+79.3463ZM307.717+62.9356C306.621+63.6495+305.795+64.5003+305.239+65.4881C304.683+66.4759+304.405+67.5758+304.405+68.7877C304.405+70.8131+305.056+72.5189+306.359+73.9051C307.663+75.2913+309.26+75.9845+311.153+75.9845C311.618+75.9845+312.095+75.9305+312.585+75.8226C313.075+75.7147+313.552+75.5611+314.017+75.3619C314.05+75.3453+314.116+75.3121+314.216+75.2623C314.697+75.0299+315.088+74.814+315.386+74.6148L307.717+62.9356Z" opacity="1" fill="#c72d3b"/>
<path d="M16.4463+109.503L16.4463+120.41L19.4594+120.41C21.8667+120.41+23.5559+120.003+24.5271+119.19C25.4983+118.377+25.9839+116.965+25.9839+114.957C25.9839+112.948+25.4983+111.537+24.5271+110.723C23.5559+109.91+21.8667+109.503+19.4594+109.503L16.4463+109.503ZM9.10006+103.327L19.1855+103.327C24.3154+103.327+28.0051+104.24+30.2546+106.066C32.5041+107.893+33.6289+110.856+33.6289+114.957C33.6289+119.057+32.5041+122.021+30.2546+123.847C28.0051+125.673+24.3154+126.586+19.1855+126.586L16.4463+126.586L16.4463+140.506L9.10006+140.506L9.10006+103.327Z" opacity="1" fill="#c72d3b"/>
<path d="M62.4409+122.402L62.4409+140.506L55.1943+140.506L55.1943+123.523C55.1943+121.514+54.9079+120.078+54.3352+119.215C53.7624+118.352+52.8286+117.92+51.5337+117.92C50.2055+117.92+49.1679+118.505+48.4209+119.676C47.6738+120.846+47.3003+122.469+47.3003+124.544L47.3003+140.506L40.0537+140.506L40.0537+101.758L47.3003+101.758L47.3003+116.799C47.8149+115.255+48.6948+114.06+49.9399+113.213C51.185+112.367+52.6875+111.943+54.4472+111.943C57.0869+111.943+59.0791+112.819+60.4238+114.571C61.7685+116.322+62.4409+118.933+62.4409+122.402Z" opacity="1" fill="#c72d3b"/>
<path d="M81.8149+117.87C80.0717+117.87+78.7021+118.638+77.706+120.174C76.7099+121.709+76.2119+123.847+76.2119+126.586C76.2119+129.325+76.7099+131.463+77.706+132.998C78.7021+134.534+80.0717+135.302+81.8149+135.302C83.5747+135.302+84.9526+134.534+85.9487+132.998C86.9448+131.463+87.4428+129.325+87.4428+126.586C87.4428+123.847+86.9448+121.709+85.9487+120.174C84.9526+118.638+83.5747+117.87+81.8149+117.87ZM68.9155+126.586C68.9155+122.087+70.0818+118.522+72.4143+115.89C74.7468+113.259+77.8803+111.943+81.8149+111.943C85.7661+111.943+88.9079+113.259+91.2404+115.89C93.573+118.522+94.7392+122.087+94.7392+126.586C94.7392+131.085+93.573+134.65+91.2404+137.282C88.9079+139.913+85.7661+141.229+81.8149+141.229C77.8803+141.229+74.7468+139.913+72.4143+137.282C70.0818+134.65+68.9155+131.085+68.9155+126.586Z" opacity="1" fill="#c72d3b"/>
<path d="M114.362+104.697L114.362+112.616L123.9+112.616L123.9+118.219L114.362+118.219L114.362+131.417C114.362+132.662+114.665+133.555+115.271+134.094C115.877+134.634+116.886+134.903+118.297+134.903L123.9+134.903L123.9+140.506L117.774+140.506C113.59+140.506+110.76+139.838+109.282+138.502C107.805+137.165+107.066+134.688+107.066+131.068L107.066+118.219L99.9438+118.219L99.9438+112.616L107.066+112.616L107.066+104.697L114.362+104.697Z" opacity="1" fill="#c72d3b"/>
<path d="M143.224+117.87C141.481+117.87+140.111+118.638+139.115+120.174C138.119+121.709+137.621+123.847+137.621+126.586C137.621+129.325+138.119+131.463+139.115+132.998C140.111+134.534+141.481+135.302+143.224+135.302C144.984+135.302+146.362+134.534+147.358+132.998C148.354+131.463+148.852+129.325+148.852+126.586C148.852+123.847+148.354+121.709+147.358+120.174C146.362+118.638+144.984+117.87+143.224+117.87ZM130.325+126.586C130.325+122.087+131.491+118.522+133.823+115.89C136.156+113.259+139.29+111.943+143.224+111.943C147.175+111.943+150.317+113.259+152.65+115.89C154.982+118.522+156.148+122.087+156.148+126.586C156.148+131.085+154.982+134.65+152.65+137.282C150.317+139.913+147.175+141.229+143.224+141.229C139.29+141.229+136.156+139.913+133.823+137.282C131.491+134.65+130.325+131.085+130.325+126.586Z" opacity="1" fill="#c72d3b"/>
<path d="M178.585+126.113C178.585+123.623+178.112+121.626+177.166+120.124C176.22+118.621+174.975+117.87+173.431+117.87C171.903+117.87+170.671+118.617+169.733+120.111C168.795+121.606+168.326+123.606+168.326+126.113C168.326+128.636+168.795+130.645+169.733+132.139C170.671+133.633+171.903+134.38+173.431+134.38C174.975+134.38+176.22+133.629+177.166+132.127C178.112+130.624+178.585+128.62+178.585+126.113ZM185.882+138.415C185.882+142.88+184.873+146.105+182.856+148.089C180.839+150.073+177.564+151.065+173.032+151.065C171.505+151.065+169.994+150.953+168.5+150.729C167.006+150.505+165.487+150.16+163.943+149.695L163.943+142.997C165.321+143.76+166.724+144.325+168.151+144.69C169.579+145.055+171.048+145.238+172.559+145.238C174.618+145.238+176.137+144.752+177.116+143.781C178.096+142.81+178.585+141.295+178.585+139.236L178.585+136.223C177.872+137.551+176.925+138.539+175.747+139.187C174.568+139.834+173.132+140.158+171.438+140.158C168.251+140.158+165.719+138.913+163.843+136.422C161.967+133.932+161.029+130.554+161.029+126.287C161.029+121.871+161.967+118.368+163.843+115.778C165.719+113.189+168.234+111.894+171.389+111.894C172.982+111.894+174.402+112.267+175.647+113.014C176.892+113.761+177.872+114.816+178.585+116.177L178.585+112.616L185.882+112.616L185.882+138.415Z" opacity="1" fill="#c72d3b"/>
<path d="M217.956+120.311C217.159+119.58+216.225+119.032+215.155+118.667C214.084+118.302+212.909+118.119+211.631+118.119C210.087+118.119+208.738+118.389+207.584+118.929C206.43+119.468+205.538+120.253+204.907+121.282C204.509+121.913+204.231+122.676+204.073+123.573C203.915+124.469+203.836+125.831+203.836+127.657L203.836+140.506L196.54+140.506L196.54+112.616L203.836+112.616L203.836+116.949C204.55+115.355+205.646+114.122+207.124+113.251C208.601+112.379+210.328+111.943+212.303+111.943C213.299+111.943+214.275+112.064+215.229+112.305C216.184+112.545+217.093+112.898+217.956+113.363L217.956+120.311Z" opacity="1" fill="#c72d3b"/>
<path d="M237.43+127.408C234.707+127.408+232.806+127.756+231.727+128.454C230.648+129.151+230.108+130.346+230.108+132.04C230.108+133.301+230.482+134.306+231.229+135.053C231.976+135.8+232.989+136.173+234.267+136.173C236.193+136.173+237.687+135.447+238.749+133.994C239.812+132.542+240.343+130.512+240.343+127.906L240.343+127.408L237.43+127.408ZM247.59+124.594L247.59+140.506L240.343+140.506L240.343+137.394C239.463+138.622+238.334+139.568+236.957+140.232C235.579+140.897+234.06+141.229+232.399+141.229C229.228+141.229+226.759+140.39+224.991+138.713C223.223+137.037+222.339+134.696+222.339+131.691C222.339+128.437+223.393+126.034+225.501+124.482C227.61+122.93+230.872+122.153+235.288+122.153L240.343+122.153L240.343+120.933C240.343+119.754+239.916+118.862+239.061+118.256C238.206+117.65+236.948+117.347+235.288+117.347C233.545+117.347+231.856+117.567+230.22+118.007C228.585+118.447+226.879+119.149+225.103+120.111L225.103+113.886C226.713+113.222+228.349+112.732+230.009+112.417C231.669+112.101+233.429+111.943+235.288+111.943C239.82+111.943+243.004+112.865+244.838+114.708C246.673+116.55+247.59+119.846+247.59+124.594Z" opacity="1" fill="#c72d3b"/>
<path d="M261.709+136.572L261.709+151.115L254.438+151.115L254.438+112.616L261.709+112.616L261.709+116.799C262.473+115.189+263.478+113.977+264.723+113.164C265.968+112.35+267.429+111.943+269.105+111.943C272.293+111.943+274.767+113.222+276.526+115.778C278.286+118.335+279.166+121.938+279.166+126.586C279.166+131.301+278.274+134.92+276.489+137.443C274.704+139.967+272.16+141.229+268.856+141.229C267.362+141.229+266.022+140.843+264.835+140.071C263.648+139.299+262.606+138.132+261.709+136.572ZM271.87+126.536C271.87+123.847+271.421+121.738+270.525+120.211C269.628+118.684+268.392+117.92+266.814+117.92C265.237+117.92+263.992+118.684+263.079+120.211C262.166+121.738+261.709+123.847+261.709+126.536C261.709+129.226+262.166+131.334+263.079+132.861C263.992+134.389+265.237+135.152+266.814+135.152C268.392+135.152+269.628+134.389+270.525+132.861C271.421+131.334+271.87+129.226+271.87+126.536Z" opacity="1" fill="#c72d3b"/>
<path d="M308.078+122.402L308.078+140.506L300.831+140.506L300.831+123.523C300.831+121.514+300.545+120.078+299.972+119.215C299.399+118.352+298.465+117.92+297.17+117.92C295.842+117.92+294.805+118.505+294.058+119.676C293.311+120.846+292.937+122.469+292.937+124.544L292.937+140.506L285.69+140.506L285.69+101.758L292.937+101.758L292.937+116.799C293.452+115.255+294.332+114.06+295.577+113.213C296.822+112.367+298.324+111.943+300.084+111.943C302.724+111.943+304.716+112.819+306.061+114.571C307.405+116.322+308.078+118.933+308.078+122.402Z" opacity="1" fill="#c72d3b"/>
<path d="M329.817+143.52C328.838+146.143+327.663+148.056+326.294+149.26C324.924+150.463+323.26+151.065+321.301+151.065L315.274+151.065L315.274+145.512L318.238+145.512C319.732+145.512+320.828+145.259+321.525+144.752C322.222+144.246+322.928+143.071+323.642+141.229L324.189+139.734L313.581+112.616L321.251+112.616L327.626+130.72L333.727+112.616L341.397+112.616L329.817+143.52Z" opacity="1" fill="#c72d3b"/>
</g>
<path d="M83.9123+22.5459L84.6807+22.5459L84.6807+22.9301L83.9123+22.9301L83.9123+22.5459Z" opacity="1" fill="#ffffff"/>
<path d="M229.348+78.7407L233.405+78.7407L233.405+79.441L229.348+79.441L229.348+78.7407Z" opacity="1" fill="#ffffff"/>
</g>
</svg>
