<?xml version="1.0" encoding="UTF-8" standalone="no"?> <!-- Created with Vectornator for iOS (http://vectornator.io/) --><!DOCTYPE svg PUBLIC "-//W3C//DTD SVG 1.1//EN" "http://www.w3.org/Graphics/SVG/1.1/DTD/svg11.dtd">
<svg height="100%" style="fill-rule:nonzero;clip-rule:evenodd;stroke-linecap:round;stroke-linejoin:round;" xmlns:xlink="http://www.w3.org/1999/xlink" xmlns="http://www.w3.org/2000/svg" xml:space="preserve" width="100%" xmlns:vectornator="http://vectornator.io" version="1.1" viewBox="0 0 170.1 56.7">
<metadata>
<vectornator:setting key="DimensionsVisible" value="1"/>
<vectornator:setting key="PencilOnly" value="1"/>
<vectornator:setting key="SnapToPoints" value="0"/>
<vectornator:setting key="OutlineMode" value="0"/>
<vectornator:setting key="CMYKEnabledKey" value="0"/>
<vectornator:setting key="RulersVisible" value="1"/>
<vectornator:setting key="SnapToEdges" value="0"/>
<vectornator:setting key="GuidesVisible" value="1"/>
<vectornator:setting key="DisplayWhiteBackground" value="0"/>
<vectornator:setting key="doHistoryDisabled" value="0"/>
<vectornator:setting key="SnapToGuides" value="1"/>
<vectornator:setting key="TimeLapseWatermarkDisabled" value="0"/>
<vectornator:setting key="Units" value="Millimeters"/>
<vectornator:setting key="DynamicGuides" value="0"/>
<vectornator:setting key="IsolateActiveLayer" value="0"/>
<vectornator:setting key="SnapToGrid" value="0"/>
</metadata>
<defs/>
<g id="Ebene 2" vectornator:layerName="Ebene 2">
<path d="M-29.0508-22.4088L197.452-22.4088L197.452+71.3428L-29.0508+71.3428L-29.0508-22.4088Z" opacity="1" fill="#ffffff"/>
</g>
<g id="Ebene 1" vectornator:layerName="Ebene 1">
<g opacity="1">
<path d="M30.3623+11.06L29.0048+17.0268L31.7294+17.0268L30.3623+11.06ZM28.6044+8.42332L32.1298+8.42332L36.0654+23.0034L33.1845+23.0034L32.2861+19.3999L28.4287+19.3999L27.5498+23.0034L24.6689+23.0034L28.6044+8.42332Z" opacity="1" fill="#c72d3b"/>
<path d="M47.6279+15.0835C47.3154+14.797+46.9492+14.5822+46.5292+14.4389C46.1093+14.2957+45.6487+14.2241+45.1474+14.2241C44.5419+14.2241+44.013+14.3299+43.5605+14.5415C43.108+14.7531+42.7581+15.0607+42.5107+15.4643C42.3544+15.7117+42.2454+16.0112+42.1835+16.3628C42.1217+16.7143+42.0908+17.2482+42.0908+17.9643L42.0908+23.0034L39.2294+23.0034L39.2294+12.0659L42.0908+12.0659L42.0908+13.7651C42.3707+13.1401+42.8004+12.6567+43.3798+12.3149C43.9593+11.9731+44.6363+11.8022+45.4111+11.8022C45.8017+11.8022+46.1842+11.8494+46.5585+11.9438C46.9329+12.0382+47.2893+12.1766+47.6279+12.3589L47.6279+15.0835Z" opacity="1" fill="#c72d3b"/>
<path d="M55.1669+8.96043L55.1669+12.0659L58.9072+12.0659L58.9072+14.2632L55.1669+14.2632L55.1669+19.4389C55.1669+19.9272+55.2858+20.2772+55.5234+20.4887C55.761+20.7003+56.1565+20.8061+56.7099+20.8061L58.9072+20.8061L58.9072+23.0034L56.5048+23.0034C54.8642+23.0034+53.7542+22.7414+53.1748+22.2173C52.5953+21.6932+52.3056+20.7215+52.3056+19.3022L52.3056+14.2632L49.5126+14.2632L49.5126+12.0659L52.3056+12.0659L52.3056+8.96043L55.1669+8.96043Z" opacity="1" fill="#c72d3b"/>
<path d="M62.6279+12.0659L68.2919+12.0659L68.2919+20.8061L71.8466+20.8061L71.8466+23.0034L61.8662+23.0034L61.8662+20.8061L65.4306+20.8061L65.4306+14.2632L62.6279+14.2632L62.6279+12.0659ZM65.4306+6.74363L68.2919+6.74363L68.2919+10.0835L65.4306+10.0835L65.4306+6.74363Z" opacity="1" fill="#c72d3b"/>
<path d="M82.872+22.4468C82.3903+22.7267+81.8727+22.9367+81.3193+23.0766C80.7659+23.2166+80.1702+23.2866+79.5322+23.2866C77.846+23.2866+76.5276+22.7788+75.5771+21.7632C74.6266+20.7475+74.1513+19.3413+74.1513+17.5444C74.1513+15.741+74.6298+14.3299+75.5869+13.311C76.5439+12.2921+77.8655+11.7827+79.5517+11.7827C80.1376+11.7827+80.7024+11.8511+81.246+11.9878C81.7897+12.1245+82.3317+12.3361+82.872+12.6225L82.872+15.2397C82.4554+14.8817+81.998+14.6066+81.5+14.4145C81.0019+14.2225+80.486+14.1264+79.9521+14.1264C79.0211+14.1264+78.305+14.4227+77.8037+15.0151C77.3024+15.6076+77.0517+16.4507+77.0517+17.5444C77.0517+18.6382+77.3024+19.478+77.8037+20.0639C78.305+20.6499+79.0211+20.9428+79.9521+20.9428C80.5055+20.9428+81.0231+20.8501+81.5048+20.6645C81.9866+20.479+82.4423+20.1974+82.872+19.8198L82.872+22.4468Z" opacity="1" fill="#c72d3b"/>
<path d="M88.331+18.4428L88.331+10.0053L85.4306+10.0053L85.4306+7.80808L91.1923+7.80808L91.1923+18.4428C91.1923+19.3022+91.3258+19.9109+91.5927+20.269C91.8597+20.6271+92.3121+20.8061+92.9501+20.8061L95.2353+20.8061L95.2353+23.0034L92.1494+23.0034C90.7887+23.0034+89.8121+22.6518+89.2197+21.9487C88.6272+21.2456+88.331+20.077+88.331+18.4428Z" opacity="1" fill="#c72d3b"/>
<path d="M107.354+22.4663C106.69+22.7397+106.013+22.9448+105.323+23.0815C104.633+23.2182+103.904+23.2866+103.136+23.2866C101.306+23.2866+99.9082+22.7967+98.9414+21.8169C97.9746+20.8371+97.4912+19.4259+97.4912+17.5835C97.4912+15.7996+97.9567+14.3901+98.8876+13.355C99.8186+12.3198+101.088+11.8022+102.696+11.8022C104.317+11.8022+105.575+12.2824+106.471+13.2427C107.366+14.2029+107.813+15.5555+107.813+17.3003L107.813+18.4624L100.401+18.4624C100.408+19.3218+100.662+19.963+101.163+20.3862C101.664+20.8094+102.413+21.021+103.409+21.021C104.067+21.021+104.714+20.9266+105.352+20.7378C105.991+20.549+106.658+20.2495+107.354+19.8393L107.354+22.4663ZM104.933+16.3139C104.92+15.5587+104.726+14.9874+104.352+14.6001C103.977+14.2127+103.425+14.019+102.696+14.019C102.039+14.019+101.515+14.2192+101.124+14.6196C100.733+15.02+100.502+15.588+100.431+16.3237L104.933+16.3139Z" opacity="1" fill="#c72d3b"/>
<path d="M118.311+12.4077L118.311+14.9077C117.784+14.5692+117.236+14.3136+116.666+14.1411C116.096+13.9686+115.525+13.8823+114.952+13.8823C114.314+13.8823+113.832+13.9751+113.507+14.1606C113.181+14.3462+113.019+14.6212+113.019+14.9858C113.019+15.5067+113.715+15.9298+115.108+16.2553L115.216+16.2846L116.036+16.48C117.078+16.7274+117.841+17.1261+118.326+17.6762C118.811+18.2264+119.054+18.9702+119.054+19.9077C119.054+21.034+118.684+21.8787+117.945+22.4419C117.206+23.005+116.095+23.2866+114.61+23.2866C113.953+23.2866+113.279+23.2296+112.589+23.1157C111.899+23.0018+111.199+22.8309+110.489+22.603L110.489+20.103C111.121+20.4611+111.764+20.7345+112.418+20.9233C113.072+21.1121+113.705+21.2065+114.317+21.2065C114.988+21.2065+115.496+21.1089+115.841+20.9136C116.186+20.7182+116.358+20.435+116.358+20.0639C116.358+19.6994+116.236+19.4194+115.992+19.2241C115.748+19.0288+115.167+18.8205+114.249+18.5991L113.458+18.4233C112.364+18.1759+111.567+17.7886+111.065+17.2612C110.564+16.7339+110.313+16.0275+110.313+15.1421C110.313+14.0874+110.694+13.2671+111.456+12.6811C112.218+12.0952+113.289+11.8022+114.669+11.8022C115.287+11.8022+115.904+11.8527+116.519+11.9536C117.135+12.0545+117.732+12.2059+118.311+12.4077Z" opacity="1" fill="#c72d3b"/>
<path d="M141.212+22.3003C140.724+22.6258+140.204+22.8716+139.654+23.0376C139.104+23.2036+138.546+23.2866+137.979+23.2866C136.521+23.2866+135.339+22.8602+134.435+22.0073C133.53+21.1544+133.077+20.0477+133.077+18.687C133.077+17.743+133.307+16.8836+133.766+16.1089C134.225+15.3341+134.907+14.6603+135.811+14.0874C135.486+13.5796+135.245+13.1092+135.089+12.6762C134.933+12.2433+134.854+11.8315+134.854+11.4409C134.854+10.3862+135.209+9.57566+135.919+9.00926C136.629+8.44285+137.654+8.15965+138.995+8.15965C139.47+8.15965+139.936+8.19545+140.392+8.26707C140.847+8.33868+141.297+8.44285+141.739+8.57957L141.739+11.0796C141.323+10.8452+140.901+10.6678+140.475+10.5473C140.048+10.4269+139.623+10.3667+139.2+10.3667C138.679+10.3667+138.285+10.4578+138.019+10.6401C137.752+10.8224+137.618+11.0893+137.618+11.4409C137.618+11.6753+137.717+11.9975+137.916+12.4077C138.115+12.8178+138.435+13.355+138.878+14.019L141.935+18.7065C142.071+18.4591+142.175+18.1759+142.247+17.8569C142.319+17.5379+142.354+17.1928+142.354+16.8218C142.354+16.6264+142.348+16.436+142.335+16.2505C142.322+16.0649+142.302+15.8908+142.276+15.728L144.571+15.728L144.571+16.2261C144.571+17.1701+144.461+17.9953+144.239+18.7016C144.018+19.408+143.67+20.0412+143.194+20.6011L144.776+23.0034L141.681+23.0034L141.212+22.3003ZM137.013+15.8647C136.583+16.1447+136.259+16.4783+136.041+16.8657C135.823+17.2531+135.714+17.6844+135.714+18.1596C135.714+18.9539+135.969+19.6229+136.48+20.1665C136.991+20.7101+137.618+20.9819+138.36+20.9819C138.543+20.9819+138.73+20.9608+138.922+20.9184C139.114+20.8761+139.301+20.8159+139.483+20.7378C139.496+20.7313+139.522+20.7182+139.561+20.6987C139.75+20.6076+139.903+20.5229+140.02+20.4448L137.013+15.8647Z" opacity="1" fill="#c72d3b"/>
<path d="M22.789+34.1264L22.789+38.4038L23.9707+38.4038C24.9147+38.4038+25.5771+38.2443+25.958+37.9253C26.3388+37.6063+26.5292+37.0529+26.5292+36.2651C26.5292+35.4774+26.3388+34.924+25.958+34.605C25.5771+34.2859+24.9147+34.1264+23.9707+34.1264L22.789+34.1264ZM19.9082+31.7046L23.8632+31.7046C25.875+31.7046+27.3219+32.0626+28.2041+32.7788C29.0862+33.4949+29.5273+34.657+29.5273+36.2651C29.5273+37.8732+29.0862+39.0353+28.2041+39.7514C27.3219+40.4676+25.875+40.8257+23.8632+40.8257L22.789+40.8257L22.789+46.2846L19.9082+46.2846L19.9082+31.7046Z" opacity="1" fill="#c72d3b"/>
<path d="M40.8261+39.185L40.8261+46.2846L37.9843+46.2846L37.9843+39.6245C37.9843+38.8367+37.872+38.2736+37.6474+37.935C37.4228+37.5965+37.0566+37.4272+36.5488+37.4272C36.0279+37.4272+35.621+37.6567+35.3281+38.1157C35.0351+38.5747+34.8886+39.2111+34.8886+40.0249L34.8886+46.2846L32.0468+46.2846L32.0468+31.0893L34.8886+31.0893L34.8886+36.9878C35.0904+36.3823+35.4355+35.9136+35.9238+35.5815C36.4121+35.2495+37.0013+35.0835+37.6914+35.0835C38.7265+35.0835+39.5078+35.4269+40.0351+36.1137C40.5625+36.8006+40.8261+37.8244+40.8261+39.185Z" opacity="1" fill="#c72d3b"/>
<path d="M48.4238+37.4077C47.7402+37.4077+47.2031+37.7088+46.8125+38.311C46.4218+38.9132+46.2265+39.7514+46.2265+40.8257C46.2265+41.8999+46.4218+42.7381+46.8125+43.3403C47.2031+43.9425+47.7402+44.2436+48.4238+44.2436C49.1139+44.2436+49.6542+43.9425+50.0449+43.3403C50.4355+42.7381+50.6308+41.8999+50.6308+40.8257C50.6308+39.7514+50.4355+38.9132+50.0449+38.311C49.6542+37.7088+49.1139+37.4077+48.4238+37.4077ZM43.3652+40.8257C43.3652+39.0613+43.8225+37.6632+44.7373+36.6313C45.652+35.5994+46.8808+35.0835+48.4238+35.0835C49.9733+35.0835+51.2054+35.5994+52.1201+36.6313C53.0348+37.6632+53.4921+39.0613+53.4921+40.8257C53.4921+42.59+53.0348+43.9881+52.1201+45.02C51.2054+46.0519+49.9733+46.5678+48.4238+46.5678C46.8808+46.5678+45.652+46.0519+44.7373+45.02C43.8225+43.9881+43.3652+42.59+43.3652+40.8257Z" opacity="1" fill="#c72d3b"/>
<path d="M61.1875+32.2417L61.1875+35.3471L64.9277+35.3471L64.9277+37.5444L61.1875+37.5444L61.1875+42.7202C61.1875+43.2085+61.3063+43.5584+61.5439+43.77C61.7815+43.9816+62.177+44.0874+62.7304+44.0874L64.9277+44.0874L64.9277+46.2846L62.5253+46.2846C60.8847+46.2846+59.7747+46.0226+59.1953+45.4985C58.6158+44.9744+58.3261+44.0027+58.3261+42.5835L58.3261+37.5444L55.5332+37.5444L55.5332+35.3471L58.3261+35.3471L58.3261+32.2417L61.1875+32.2417Z" opacity="1" fill="#c72d3b"/>
<path d="M72.5058+37.4077C71.8222+37.4077+71.2851+37.7088+70.8945+38.311C70.5039+38.9132+70.3085+39.7514+70.3085+40.8257C70.3085+41.8999+70.5039+42.7381+70.8945+43.3403C71.2851+43.9425+71.8222+44.2436+72.5058+44.2436C73.1959+44.2436+73.7363+43.9425+74.1269+43.3403C74.5175+42.7381+74.7128+41.8999+74.7128+40.8257C74.7128+39.7514+74.5175+38.9132+74.1269+38.311C73.7363+37.7088+73.1959+37.4077+72.5058+37.4077ZM67.4472+40.8257C67.4472+39.0613+67.9046+37.6632+68.8193+36.6313C69.734+35.5994+70.9628+35.0835+72.5058+35.0835C74.0553+35.0835+75.2874+35.5994+76.2021+36.6313C77.1168+37.6632+77.5742+39.0613+77.5742+40.8257C77.5742+42.59+77.1168+43.9881+76.2021+45.02C75.2874+46.0519+74.0553+46.5678+72.5058+46.5678C70.9628+46.5678+69.734+46.0519+68.8193+45.02C67.9046+43.9881+67.4472+42.59+67.4472+40.8257Z" opacity="1" fill="#c72d3b"/>
<path d="M86.373+40.6401C86.373+39.6636+86.1875+38.8807+85.8164+38.2915C85.4453+37.7023+84.957+37.4077+84.3515+37.4077C83.7526+37.4077+83.2692+37.7007+82.9013+38.2866C82.5335+38.8725+82.3496+39.657+82.3496+40.6401C82.3496+41.6297+82.5335+42.4175+82.9013+43.0034C83.2692+43.5893+83.7526+43.8823+84.3515+43.8823C84.957+43.8823+85.4453+43.5877+85.8164+42.9985C86.1875+42.4093+86.373+41.6232+86.373+40.6401ZM89.2343+45.4643C89.2343+47.2156+88.8388+48.4803+88.0478+49.2583C87.2568+50.0363+85.9726+50.4253+84.1953+50.4253C83.5963+50.4253+83.0039+50.3813+82.4179+50.2934C81.832+50.2055+81.2363+50.0705+80.6308+49.8882L80.6308+47.2612C81.1712+47.5607+81.7213+47.782+82.2812+47.9253C82.8411+48.0685+83.4173+48.1401+84.0097+48.1401C84.817+48.1401+85.4127+47.9497+85.7968+47.5688C86.1809+47.188+86.373+46.5939+86.373+45.7866L86.373+44.605C86.0931+45.1258+85.722+45.5132+85.2597+45.7671C84.7975+46.021+84.2343+46.1479+83.5703+46.1479C82.3203+46.1479+81.3274+45.6596+80.5917+44.6831C79.8561+43.7065+79.4882+42.3817+79.4882+40.7085C79.4882+38.9767+79.8561+37.603+80.5917+36.5874C81.3274+35.5718+82.3138+35.0639+83.5507+35.0639C84.1757+35.0639+84.7324+35.2104+85.2207+35.5034C85.7089+35.7964+86.0931+36.2098+86.373+36.7436L86.373+35.3471L89.2343+35.3471L89.2343+45.4643Z" opacity="1" fill="#c72d3b"/>
<path d="M101.812+38.3647C101.5+38.0783+101.134+37.8634+100.714+37.7202C100.294+37.577+99.8333+37.5053+99.332+37.5053C98.7265+37.5053+98.1975+37.6111+97.7451+37.8227C97.2926+38.0343+96.9427+38.3419+96.6953+38.7456C96.539+38.993+96.43+39.2925+96.3681+39.644C96.3063+39.9956+96.2753+40.5294+96.2753+41.2456L96.2753+46.2846L93.414+46.2846L93.414+35.3471L96.2753+35.3471L96.2753+37.0464C96.5553+36.4214+96.985+35.938+97.5644+35.5962C98.1438+35.2544+98.8209+35.0835+99.5957+35.0835C99.9863+35.0835+100.369+35.1307+100.743+35.2251C101.117+35.3195+101.474+35.4578+101.812+35.6401L101.812+38.3647Z" opacity="1" fill="#c72d3b"/>
<path d="M109.449+41.1479C108.381+41.1479+107.636+41.2846+107.213+41.5581C106.79+41.8315+106.578+42.3003+106.578+42.9643C106.578+43.4591+106.725+43.853+107.018+44.146C107.31+44.4389+107.708+44.5854+108.209+44.5854C108.964+44.5854+109.55+44.3006+109.967+43.7309C110.383+43.1613+110.592+42.3654+110.592+41.3432L110.592+41.1479L109.449+41.1479ZM113.434+40.0444L113.434+46.2846L110.592+46.2846L110.592+45.0639C110.247+45.5457+109.804+45.9168+109.264+46.1772C108.723+46.4376+108.128+46.5678+107.477+46.5678C106.233+46.5678+105.265+46.2391+104.571+45.5815C103.878+44.924+103.531+44.006+103.531+42.8276C103.531+41.5516+103.945+40.6092+104.771+40.0005C105.598+39.3917+106.878+39.0874+108.609+39.0874L110.592+39.0874L110.592+38.6089C110.592+38.1466+110.424+37.7967+110.089+37.5591C109.754+37.3214+109.26+37.2026+108.609+37.2026C107.926+37.2026+107.263+37.2889+106.622+37.4614C105.981+37.6339+105.312+37.909+104.615+38.2866L104.615+35.8452C105.247+35.5848+105.888+35.3927+106.539+35.269C107.19+35.1453+107.88+35.0835+108.609+35.0835C110.387+35.0835+111.635+35.4448+112.354+36.1675C113.074+36.8901+113.434+38.1824+113.434+40.0444Z" opacity="1" fill="#c72d3b"/>
<path d="M118.971+44.7417L118.971+50.4448L116.119+50.4448L116.119+35.3471L118.971+35.3471L118.971+36.9878C119.27+36.3563+119.664+35.881+120.152+35.562C120.641+35.243+121.213+35.0835+121.871+35.0835C123.121+35.0835+124.091+35.5848+124.781+36.5874C125.471+37.59+125.816+39.0027+125.816+40.8257C125.816+42.6746+125.466+44.0939+124.767+45.0835C124.067+46.0731+123.069+46.5678+121.773+46.5678C121.187+46.5678+120.662+46.4165+120.196+46.1137C119.731+45.811+119.322+45.3537+118.971+44.7417ZM122.955+40.8061C122.955+39.7514+122.779+38.9246+122.428+38.3257C122.076+37.7267+121.591+37.4272+120.973+37.4272C120.354+37.4272+119.866+37.7267+119.508+38.3257C119.15+38.9246+118.971+39.7514+118.971+40.8061C118.971+41.8608+119.15+42.6876+119.508+43.2866C119.866+43.8856+120.354+44.185+120.973+44.185C121.591+44.185+122.076+43.8856+122.428+43.2866C122.779+42.6876+122.955+41.8608+122.955+40.8061Z" opacity="1" fill="#c72d3b"/>
<path d="M137.154+39.185L137.154+46.2846L134.312+46.2846L134.312+39.6245C134.312+38.8367+134.2+38.2736+133.976+37.935C133.751+37.5965+133.385+37.4272+132.877+37.4272C132.356+37.4272+131.949+37.6567+131.656+38.1157C131.363+38.5747+131.217+39.2111+131.217+40.0249L131.217+46.2846L128.375+46.2846L128.375+31.0893L131.217+31.0893L131.217+36.9878C131.419+36.3823+131.764+35.9136+132.252+35.5815C132.74+35.2495+133.329+35.0835+134.019+35.0835C135.055+35.0835+135.836+35.4269+136.363+36.1137C136.891+36.8006+137.154+37.8244+137.154+39.185Z" opacity="1" fill="#c72d3b"/>
<path d="M145.68+47.4663C145.296+48.4949+144.835+49.2453+144.298+49.7173C143.761+50.1893+143.108+50.4253+142.34+50.4253L139.977+50.4253L139.977+48.2475L141.139+48.2475C141.725+48.2475+142.154+48.1483+142.428+47.9497C142.701+47.7511+142.978+47.2905+143.258+46.5678L143.473+45.9819L139.312+35.3471L142.32+35.3471L144.82+42.4468L147.213+35.3471L150.221+35.3471L145.68+47.4663Z" opacity="1" fill="#c72d3b"/>
</g>
<path d="M83.9123+22.5459L84.6807+22.5459L84.6807+22.9301L83.9123+22.9301L83.9123+22.5459Z" opacity="1" fill="#ffffff"/>
</g>
</svg>
